<svg width="492" height="720" viewBox="0 0 492 720" fill="none" xmlns="http://www.w3.org/2000/svg">
<path d="M233.741 257.747C287.082 311.088 320.337 374.385 331.002 433.583C341.667 492.783 329.736 547.833 292.784 584.784C255.833 621.736 200.783 633.667 141.583 623.002C82.3849 612.337 19.0884 579.082 -34.2527 525.741C-87.5939 472.4 -120.849 409.103 -131.514 349.905C-142.179 290.705 -130.248 235.656 -93.2962 198.704C-56.3446 161.752 -1.29461 149.821 57.9053 160.486C117.103 171.151 180.4 204.406 233.741 257.747Z" stroke="#BCABCE"/>
<path d="M265.741 225.747C319.082 279.088 352.337 342.385 363.002 401.583C373.667 460.783 361.736 515.833 324.784 552.784C287.833 589.736 232.783 601.667 173.583 591.002C114.385 580.337 51.0884 547.082 -2.25275 493.741C-55.5939 440.4 -88.8494 377.103 -99.5139 317.905C-110.179 258.705 -98.2477 203.656 -61.2962 166.704C-24.3446 129.752 30.7054 117.821 89.9053 128.486C149.103 139.151 212.4 172.406 265.741 225.747Z" stroke="#BCABCE"/>
<path d="M297.741 193.747C351.082 247.088 384.337 310.385 395.002 369.583C405.667 428.783 393.736 483.833 356.784 520.784C319.833 557.736 264.783 569.667 205.583 559.002C146.385 548.337 83.0884 515.082 29.7473 461.741C-23.5939 408.4 -56.8494 345.103 -67.5139 285.905C-78.1789 226.705 -66.2477 171.656 -29.2962 134.704C7.65539 97.7524 62.7054 85.8213 121.905 96.4862C181.103 107.151 244.4 140.406 297.741 193.747Z" stroke="#BCABCE"/>
</svg>
